<svg width="55" height="55" viewBox="0 0 55 55" fill="none" xmlns="http://www.w3.org/2000/svg">
<path d="M27.5 19.3333V35.6667M35.6667 27.5H19.3333M52 27.5C52 30.7174 51.3663 33.9033 50.135 36.8757C48.9038 39.8482 47.0991 42.5491 44.8241 44.8241C42.5491 47.0991 39.8482 48.9038 36.8757 50.135C33.9033 51.3663 30.7174 52 27.5 52C24.2826 52 21.0967 51.3663 18.1243 50.135C15.1518 48.9038 12.4509 47.0991 10.1759 44.8241C7.90085 42.5491 6.09619 39.8482 4.86495 36.8757C3.63371 33.9033 3 30.7174 3 27.5C3 21.0022 5.58124 14.7705 10.1759 10.1759C14.7705 5.58124 21.0022 3 27.5 3C33.9978 3 40.2295 5.58124 44.8241 10.1759C49.4188 14.7705 52 21.0022 52 27.5Z" stroke="white" stroke-width="5" stroke-linecap="round" stroke-linejoin="round"/>
</svg>
