<svg width="46" height="53" viewBox="0 0 46 53" fill="none" xmlns="http://www.w3.org/2000/svg">
<path d="M15.7273 26.5H24.8182M15.7273 33.7308H24.8182M15.7273 40.9615H24.8182M32.0909 42.7692H37.5455C38.9921 42.7692 40.3795 42.1979 41.4024 41.1808C42.4253 40.1638 43 38.7844 43 37.3462V12.2988C43 9.56313 40.9515 7.24205 38.2097 7.01549C37.303 6.94073 36.3955 6.87645 35.4873 6.82267M35.4873 6.82267C35.6481 7.34108 35.7274 7.88055 35.7273 8.42308C35.7273 8.90251 35.5357 9.3623 35.1947 9.70131C34.8538 10.0403 34.3913 10.2308 33.9091 10.2308H23C21.9964 10.2308 21.1818 9.42092 21.1818 8.42308C21.1818 7.86631 21.2667 7.32882 21.4242 6.82267M35.4873 6.82267C34.8012 4.61005 32.7261 3 30.2727 3H26.6364C25.4709 3.00027 24.3361 3.37153 23.3982 4.0594C22.4603 4.74728 21.7686 5.71563 21.4242 6.82267M21.4242 6.82267C20.5127 6.8781 19.6061 6.94318 18.6994 7.01549C15.9576 7.24205 13.9091 9.56313 13.9091 12.2988V17.4615M13.9091 17.4615H5.72727C4.22182 17.4615 3 18.6763 3 20.1731V47.2885C3 48.7852 4.22182 50 5.72727 50H29.3636C30.8691 50 32.0909 48.7852 32.0909 47.2885V20.1731C32.0909 18.6763 30.8691 17.4615 29.3636 17.4615H13.9091ZM10.2727 26.5H10.2921V26.5193H10.2727V26.5ZM10.2727 33.7308H10.2921V33.7501H10.2727V33.7308ZM10.2727 40.9615H10.2921V40.9808H10.2727V40.9615Z" stroke="white" stroke-width="5" stroke-linecap="round" stroke-linejoin="round"/>
</svg>
