<svg width="101" height="117" viewBox="0 0 101 117" fill="none" xmlns="http://www.w3.org/2000/svg">
<path d="M33.9545 58.5H54.6364M33.9545 74.9615H54.6364M33.9545 91.4231H54.6364M71.1818 95.5385H83.5909C86.882 95.5385 90.0383 94.2377 92.3655 91.9224C94.6926 89.607 96 86.4667 96 83.1923V26.1695C96 19.9416 91.3397 14.6574 85.1021 14.1416C83.0393 13.9714 80.9747 13.8251 78.9085 13.7027M78.9085 13.7027C79.2745 14.8829 79.4549 16.111 79.4545 17.3462C79.4545 18.4376 79.0188 19.4844 78.243 20.2562C77.4673 21.028 76.4152 21.4615 75.3182 21.4615H50.5C48.2167 21.4615 46.3636 19.6178 46.3636 17.3462C46.3636 16.0786 46.5567 14.855 46.9152 13.7027M78.9085 13.7027C77.3477 8.66544 72.6268 5 67.0455 5H58.7727C56.1213 5.00062 53.5396 5.84582 51.4059 7.41183C49.2722 8.97784 47.6985 11.1824 46.9152 13.7027M46.9152 13.7027C44.8415 13.8289 42.7788 13.977 40.7161 14.1416C34.4785 14.6574 29.8182 19.9416 29.8182 26.1695V37.9231M29.8182 37.9231H11.2045C7.77964 37.9231 5 40.6886 5 44.0962V105.827C5 109.234 7.77964 112 11.2045 112H64.9773C68.4022 112 71.1818 109.234 71.1818 105.827V44.0962C71.1818 40.6886 68.4022 37.9231 64.9773 37.9231H29.8182ZM21.5455 58.5H21.5896V58.5439H21.5455V58.5ZM21.5455 74.9615H21.5896V75.0054H21.5455V74.9615ZM21.5455 91.4231H21.5896V91.467H21.5455V91.4231Z" stroke="#010101" stroke-width="9" stroke-linecap="round" stroke-linejoin="round"/>
</svg>
