<svg width="76" height="76" viewBox="0 0 76 76" fill="none" xmlns="http://www.w3.org/2000/svg">
<path d="M54.7508 11.602L61.0488 5.30025C62.3617 3.98734 64.1424 3.24976 65.9992 3.24976C67.8559 3.24976 69.6366 3.98734 70.9495 5.30025C72.2624 6.61316 73 8.39385 73 10.2506C73 12.1073 72.2624 13.888 70.9495 15.2009L31.3058 54.8447C29.3321 56.8172 26.8981 58.2671 24.2237 59.0633L14.1999 62.0499L17.1865 52.026C17.9827 49.3516 19.4326 46.9177 21.4051 44.944L54.7508 11.602ZM54.7508 11.602L64.5992 21.4504M58.9993 47.1168V64.8499C58.9993 67.0777 58.1143 69.2142 56.539 70.7895C54.9637 72.3648 52.8272 73.2498 50.5994 73.2498H11.3999C9.1721 73.2498 7.03556 72.3648 5.46027 70.7895C3.88499 69.2142 3 67.0777 3 64.8499V25.6504C3 23.4226 3.88499 21.286 5.46027 19.7108C7.03556 18.1355 9.1721 17.2505 11.3999 17.2505H29.133" stroke="black" stroke-width="5" stroke-linecap="round" stroke-linejoin="round"/>
</svg>
