<svg width="76" height="76" viewBox="0 0 76 76" fill="none" xmlns="http://www.w3.org/2000/svg">
<path d="M50.3744 54.7922C47.1112 51.5205 42.6832 49.6771 38.0622 49.6667C35.7532 49.6554 33.4649 50.1027 31.33 50.9826C29.1951 51.8624 27.2562 53.1573 25.6256 54.7922M73 38C73 42.5963 72.0947 47.1475 70.3358 51.3939C68.5769 55.6403 65.9988 59.4987 62.7487 62.7487C59.4987 65.9988 55.6403 68.5769 51.3939 70.3358C47.1475 72.0947 42.5963 73 38 73C33.4037 73 28.8525 72.0947 24.6061 70.3358C20.3597 68.5769 16.5013 65.9988 13.2513 62.7487C10.0012 59.4987 7.42313 55.6403 5.66422 51.3939C3.9053 47.1475 3 42.5963 3 38C3 28.7174 6.68749 19.815 13.2513 13.2513C19.815 6.68749 28.7174 3 38 3C47.2826 3 56.185 6.68749 62.7487 13.2513C69.3125 19.815 73 28.7174 73 38ZM29.25 29.25C29.25 30.86 28.5967 32.1667 27.7917 32.1667C26.9867 32.1667 26.3333 30.86 26.3333 29.25C26.3333 27.64 26.9867 26.3333 27.7917 26.3333C28.5967 26.3333 29.25 27.64 29.25 29.25ZM27.7917 29.25H27.8228V29.3083H27.7917V29.25ZM49.6667 29.25C49.6667 30.86 49.0133 32.1667 48.2083 32.1667C47.4033 32.1667 46.75 30.86 46.75 29.25C46.75 27.64 47.4033 26.3333 48.2083 26.3333C49.0133 26.3333 49.6667 27.64 49.6667 29.25ZM48.2083 29.25H48.2394V29.3083H48.2083V29.25Z" stroke="white" stroke-width="5" stroke-linecap="round" stroke-linejoin="round"/>
</svg>
