<svg width="44" height="56" viewBox="0 0 44 56" fill="none" xmlns="http://www.w3.org/2000/svg">
<path d="M31.5013 12.6154C31.5013 15.1655 30.5002 17.6112 28.7184 19.4145C26.9366 21.2177 24.5199 22.2308 22 22.2308C19.4801 22.2308 17.0634 21.2177 15.2816 19.4145C13.4998 17.6112 12.4987 15.1655 12.4987 12.6154C12.4987 10.0652 13.4998 7.61951 15.2816 5.81628C17.0634 4.01305 19.4801 3 22 3C24.5199 3 26.9366 4.01305 28.7184 5.81628C30.5002 7.61951 31.5013 10.0652 31.5013 12.6154ZM3 48.8153C3.08142 43.7701 5.119 38.9594 8.67334 35.4206C12.2277 31.8818 17.014 29.8986 22 29.8986C26.986 29.8986 31.7723 31.8818 35.3267 35.4206C38.881 38.9594 40.9186 43.7701 41 48.8153C35.0393 51.5814 28.5575 53.009 22 53C15.2199 53 8.78437 51.5025 3 48.8153Z" stroke="white" stroke-width="5" stroke-linecap="round" stroke-linejoin="round"/>
</svg>
