<svg width="91" height="117" viewBox="0 0 91 117" fill="none" xmlns="http://www.w3.org/2000/svg">
<path d="M65.7527 25.5769C65.7527 31.0342 63.6189 36.2681 59.8208 40.127C56.0227 43.9859 50.8713 46.1538 45.5 46.1538C40.1286 46.1538 34.9773 43.9859 31.1792 40.127C27.3811 36.2681 25.2473 31.0342 25.2473 25.5769C25.2473 20.1196 27.3811 14.8858 31.1792 11.0268C34.9773 7.16792 40.1286 5 45.5 5C50.8713 5 56.0227 7.16792 59.8208 11.0268C63.6189 14.8858 65.7527 20.1196 65.7527 25.5769ZM5 103.045C5.17355 92.248 9.51683 81.953 17.0932 74.3801C24.6695 66.8071 34.8719 62.563 45.5 62.563C56.1281 62.563 66.3305 66.8071 73.9068 74.3801C81.4832 81.953 85.8264 92.248 86 103.045C73.2942 108.964 59.4779 112.019 45.5 112C31.0477 112 17.3298 108.795 5 103.045Z" stroke="black" stroke-width="9" stroke-linecap="round" stroke-linejoin="round"/>
</svg>
