<svg width="44" height="47" viewBox="0 0 44 47" fill="none" xmlns="http://www.w3.org/2000/svg">
<path d="M16.8182 16.6667V8.125C16.8182 6.76577 17.3641 5.4622 18.3359 4.50108C19.3077 3.53995 20.6257 3 22 3H35.8182C37.1925 3 38.5105 3.53995 39.4823 4.50108C40.4541 5.4622 41 6.76577 41 8.125V38.875C41 40.2342 40.4541 41.5378 39.4823 42.4989C38.5105 43.46 37.1925 44 35.8182 44H22C20.6257 44 19.3077 43.46 18.3359 42.4989C17.3641 41.5378 16.8182 40.2342 16.8182 38.875V30.3333M9.90909 30.3333L3 23.5M3 23.5L9.90909 16.6667M3 23.5H32.3636" stroke="white" stroke-width="5" stroke-linecap="round" stroke-linejoin="round"/>
</svg>
