<svg width="80" height="80" viewBox="0 0 80 80" fill="none" xmlns="http://www.w3.org/2000/svg">
<path d="M75 23.8462L66.25 19.1328M75 23.8462V31.9231M75 23.8462L66.25 28.5595M5 23.8462L13.75 19.1328M5 23.8462L13.75 28.5595M5 23.8462V31.9231M40 42.6923L48.75 37.979M40 42.6923L31.25 37.979M40 42.6923V50.7692M40 75L48.75 70.2867M40 75V66.9231M40 75L31.25 70.2867M31.25 9.70974L40 5L48.75 9.71333M75 48.0769V56.1538L66.25 60.8672M13.75 60.8672L5 56.1538V48.0769" stroke="black" stroke-width="9" stroke-linecap="round" stroke-linejoin="round"/>
</svg>
