<svg width="76" height="76" viewBox="0 0 76 76" fill="none" xmlns="http://www.w3.org/2000/svg">
<path d="M73 21.8462L64.25 17.1328M73 21.8462V29.9231M73 21.8462L64.25 26.5595M3 21.8462L11.75 17.1328M3 21.8462L11.75 26.5595M3 21.8462V29.9231M38 40.6923L46.75 35.979M38 40.6923L29.25 35.979M38 40.6923V48.7692M38 73L46.75 68.2867M38 73V64.9231M38 73L29.25 68.2867M29.25 7.70974L38 3L46.75 7.71333M73 46.0769V54.1538L64.25 58.8672M11.75 58.8672L3 54.1538V46.0769" stroke="white" stroke-width="5" stroke-linecap="round" stroke-linejoin="round"/>
</svg>
