<svg width="76" height="76" viewBox="0 0 76 76" fill="none" xmlns="http://www.w3.org/2000/svg">
<path d="M49.6242 27.232L48.1564 59.5388M27.8436 59.5388L26.3758 27.232M68.6642 15.7092C70.1152 15.8959 71.5576 16.0933 73 16.3051M68.6642 15.7092L64.1333 65.5443C63.9484 67.5733 62.8651 69.4684 61.1001 70.8507C59.3351 72.233 57.0184 73.0006 54.6133 73H21.3867C18.9816 73.0006 16.6649 72.233 14.8999 70.8507C13.1349 69.4684 12.0516 67.5733 11.8667 65.5443L7.33576 15.7092M68.6642 15.7092C63.7679 15.0829 58.8463 14.6075 53.9091 14.2841M7.33576 15.7092C5.88485 15.8923 4.44242 16.0897 3 16.3015M7.33576 15.7092C12.2321 15.0829 17.1537 14.6076 22.0909 14.2841M53.9091 14.2841V10.996C53.9091 6.76023 50.0485 3.22802 45.0424 3.0952C40.3487 2.96827 35.6513 2.96827 30.9576 3.0952C25.9515 3.22802 22.0909 6.76382 22.0909 10.996V14.2841M53.9091 14.2841C43.3188 13.5916 32.6812 13.5916 22.0909 14.2841" stroke="black" stroke-width="5" stroke-linecap="round" stroke-linejoin="round"/>
</svg>
