<svg width="59" height="53" viewBox="0 0 59 53" fill="none" xmlns="http://www.w3.org/2000/svg">
<path d="M43.2476 35.0717C44.5191 34.2013 46.0104 33.7095 47.549 33.6533C49.0876 33.5971 50.6107 33.9787 51.942 34.754C53.2733 35.5293 54.3584 36.6666 55.0718 38.0344C55.7852 39.4021 56.0978 40.9443 55.9733 42.4827C52.7122 43.6252 49.2483 44.0698 45.8052 43.7878C45.7947 40.6997 44.9076 37.6758 43.2476 35.0744C41.7742 32.7579 39.7417 30.8513 37.3382 29.5312C34.9347 28.211 32.2379 27.5199 29.4972 27.5217C26.757 27.5203 24.0607 28.2117 21.6577 29.5318C19.2548 30.852 17.2227 32.7583 15.7495 35.0744M45.8025 43.7851L45.8052 43.8695C45.8052 44.4826 45.7726 45.0874 45.7047 45.6841C40.7725 48.5208 35.1835 50.0091 29.4972 50C23.5991 50 18.0626 48.4306 13.2897 45.6841C13.2199 45.0536 13.1863 44.4195 13.1892 43.7851M13.1892 43.7851C9.74716 44.0773 6.28518 43.6344 3.02654 42.4854C2.90247 40.9475 3.21515 39.4058 3.92845 38.0385C4.64175 36.6713 5.72652 35.5343 7.05735 34.7591C8.38817 33.9839 9.9107 33.6022 11.4489 33.658C12.9871 33.7137 14.4781 34.2048 15.7495 35.0744M13.1892 43.7851C13.1989 40.6973 14.0905 37.6761 15.7495 35.0744M37.6512 11.1739C37.6512 13.3418 36.7921 15.4208 35.263 16.9537C33.7338 18.4866 31.6598 19.3478 29.4972 19.3478C27.3346 19.3478 25.2606 18.4866 23.7314 16.9537C22.2023 15.4208 21.3432 13.3418 21.3432 11.1739C21.3432 9.00605 22.2023 6.92699 23.7314 5.39408C25.2606 3.86118 27.3346 3 29.4972 3C31.6598 3 33.7338 3.86118 35.263 5.39408C36.7921 6.92699 37.6512 9.00605 37.6512 11.1739ZM53.9593 19.3478C53.9593 20.1529 53.8011 20.95 53.4937 21.6938C53.1864 22.4376 52.7359 23.1134 52.1681 23.6827C51.6002 24.2519 50.926 24.7035 50.1841 25.0116C49.4421 25.3197 48.6468 25.4782 47.8437 25.4782C47.0406 25.4782 46.2454 25.3197 45.5034 25.0116C44.7615 24.7035 44.0873 24.2519 43.5194 23.6827C42.9515 23.1134 42.5011 22.4376 42.1937 21.6938C41.8864 20.95 41.7282 20.1529 41.7282 19.3478C41.7282 17.7219 42.3725 16.1626 43.5194 15.0129C44.6663 13.8633 46.2218 13.2174 47.8437 13.2174C49.4657 13.2174 51.0212 13.8633 52.1681 15.0129C53.315 16.1626 53.9593 17.7219 53.9593 19.3478ZM17.2662 19.3478C17.2662 20.1529 17.108 20.95 16.8007 21.6938C16.4933 22.4376 16.0429 23.1134 15.475 23.6827C14.9071 24.2519 14.2329 24.7035 13.491 25.0116C12.749 25.3197 11.9538 25.4782 11.1507 25.4782C10.3476 25.4782 9.55232 25.3197 8.81035 25.0116C8.06839 24.7035 7.39422 24.2519 6.82634 23.6827C6.25846 23.1134 5.808 22.4376 5.50066 21.6938C5.19333 20.95 5.03515 20.1529 5.03515 19.3478C5.03515 17.7219 5.67946 16.1626 6.82634 15.0129C7.97322 13.8633 9.52873 13.2174 11.1507 13.2174C12.7726 13.2174 14.3281 13.8633 15.475 15.0129C16.6219 16.1626 17.2662 17.7219 17.2662 19.3478Z" stroke="white" stroke-width="5" stroke-linecap="round" stroke-linejoin="round"/>
</svg>
