<svg width="131" height="117" viewBox="0 0 131 117" fill="none" xmlns="http://www.w3.org/2000/svg">
<path d="M96.886 78.0143C99.7888 76.0327 103.194 74.9132 106.706 74.7853C110.219 74.6573 113.696 75.5261 116.736 77.2911C119.775 79.0562 122.252 81.6453 123.881 84.7591C125.51 87.8728 126.223 91.3839 125.939 94.8861C118.494 97.4872 110.586 98.4994 102.725 97.8573C102.701 90.8271 100.676 83.9427 96.886 78.0205C93.5222 72.7467 88.882 68.4062 83.3948 65.4007C77.9075 62.3952 71.7506 60.8218 65.4936 60.826C59.2377 60.8228 53.082 62.3967 47.596 65.4022C42.1099 68.4076 37.4707 72.7476 34.1074 78.0205M102.719 97.8511L102.725 98.0434C102.725 99.4391 102.651 100.816 102.496 102.175C91.2353 108.633 78.4756 112.021 65.4936 112C52.0282 112 39.3881 108.427 28.4917 102.175C28.3321 100.739 28.2555 99.2955 28.2621 97.8511M28.2621 97.8511C20.4039 98.5165 12.5001 97.508 5.06059 94.8923C4.77733 91.3911 5.4912 87.8812 7.11967 84.7686C8.74814 81.6559 11.2247 79.0675 14.263 77.3027C17.3013 75.5379 20.7772 74.6687 24.2889 74.7958C27.8006 74.9228 31.2047 76.0408 34.1074 78.0205M28.2621 97.8511C28.2843 90.8215 30.3199 83.9434 34.1074 78.0205M84.1094 23.6087C84.1094 28.544 82.1481 33.2772 78.657 36.767C75.1658 40.2568 70.4308 42.2174 65.4936 42.2174C60.5564 42.2174 55.8214 40.2568 52.3303 36.767C48.8391 33.2772 46.8778 28.544 46.8778 23.6087C46.8778 18.6734 48.8391 13.9402 52.3303 10.4504C55.8214 6.96055 60.5564 5 65.4936 5C70.4308 5 75.1658 6.96055 78.657 10.4504C82.1481 13.9402 84.1094 18.6734 84.1094 23.6087ZM121.341 42.2174C121.341 44.0502 120.98 45.865 120.278 47.5583C119.577 49.2516 118.548 50.7901 117.252 52.0861C115.955 53.3821 114.416 54.4101 112.722 55.1115C111.028 55.8129 109.213 56.1739 107.379 56.1739C105.546 56.1739 103.73 55.8129 102.036 55.1115C100.342 54.4101 98.8031 53.3821 97.5066 52.0861C96.2101 50.7901 95.1817 49.2516 94.4801 47.5583C93.7784 45.865 93.4173 44.0502 93.4173 42.2174C93.4173 38.5159 94.8883 34.966 97.5066 32.3486C100.125 29.7313 103.676 28.2609 107.379 28.2609C111.082 28.2609 114.633 29.7313 117.252 32.3486C119.87 34.966 121.341 38.5159 121.341 42.2174ZM37.5699 42.2174C37.5699 44.0502 37.2088 45.865 36.5072 47.5583C35.8055 49.2516 34.7771 50.7901 33.4806 52.0861C32.1841 53.3821 30.645 54.4101 28.9511 55.1115C27.2571 55.8129 25.4416 56.1739 23.6081 56.1739C21.7746 56.1739 19.9591 55.8129 18.2652 55.1115C16.5712 54.4101 15.0321 53.3821 13.7356 52.0861C12.4391 50.7901 11.4107 49.2516 10.7091 47.5583C10.0074 45.865 9.64628 44.0502 9.64628 42.2174C9.64628 38.5159 11.1173 34.966 13.7356 32.3486C16.354 29.7313 19.9052 28.2609 23.6081 28.2609C27.311 28.2609 30.8623 29.7313 33.4806 32.3486C36.099 34.966 37.5699 38.5159 37.5699 42.2174Z" stroke="black" stroke-width="9" stroke-linecap="round" stroke-linejoin="round"/>
</svg>
