<svg width="78" height="78" viewBox="0 0 78 78" fill="none" xmlns="http://www.w3.org/2000/svg">
<path d="M30.25 30.25L47.75 47.75M47.75 30.25L30.25 47.75M74 39C74 43.5963 73.0947 48.1475 71.3358 52.3939C69.5769 56.6403 66.9988 60.4987 63.7487 63.7487C60.4987 66.9988 56.6403 69.5769 52.3939 71.3358C48.1475 73.0947 43.5963 74 39 74C34.4037 74 29.8525 73.0947 25.6061 71.3358C21.3597 69.5769 17.5013 66.9988 14.2513 63.7487C11.0012 60.4987 8.42313 56.6403 6.66422 52.3939C4.9053 48.1475 4 43.5963 4 39C4 29.7174 7.68749 20.815 14.2513 14.2513C20.815 7.68749 29.7174 4 39 4C48.2826 4 57.185 7.68749 63.7487 14.2513C70.3125 20.815 74 29.7174 74 39Z" stroke="white" stroke-width="7" stroke-linecap="round" stroke-linejoin="round"/>
</svg>
